<svg id="Layer_1" data-name="Layer 1" xmlns="http://www.w3.org/2000/svg" viewBox="0 0 358 355"><defs><style>.cls-1{fill:#006838;}</style></defs><path class="cls-1" d="M180.44,165.24c-6.36,0-155.57.45-155.57,39.71,0,30.83,91,37.69,129.8,39.22l-12.76,12.68a8.59,8.59,0,0,0,0,12.14h0A8.58,8.58,0,0,0,154,269l24.45-24.3a9.54,9.54,0,0,0,.61-12.65c-6.18-7.34-16.17-19.13-22.37-26.46a8.58,8.58,0,0,0-13.09,11.11l8.63,10.18c-54.73-2.23-88.88-10.46-103-17.14a5.27,5.27,0,0,1,0-9.7c17-8.06,62.46-17.67,131.23-17.67S294.67,192,311.66,200.07a5.27,5.27,0,0,1-.05,9.7c-14.72,7-51.21,15.64-110.21,17.41A8.66,8.66,0,0,0,193,236a8.48,8.48,0,0,0,8.73,8.36C237.42,243.17,336,237,336,205,336,165.69,186.79,165.24,180.44,165.24Z"/><path class="cls-1" d="M237.42,112.14q19.83-9.49,19.83-29.19,0-12.58-9.13-19.93t-29.81-7.35H164.37l-26.22,72.54L111.86,55.67H89L126.61,155h22.21L180.57,71.3h40.6c.19,0,.37,0,.55,0s.37,0,.56,0h1.27v.13a13.77,13.77,0,0,1,0,27.31v.13h-1.27c-.19,0-.36.06-.56.06s-.36-.05-.55-.06H180.29V155H202V117.34h13.84L245,155h26.89Z"/></svg>