<svg id="Layer_1" data-name="Layer 1" xmlns="http://www.w3.org/2000/svg" viewBox="0 0 358 355"><defs><style>.cls-1{fill:#f7941d;}</style></defs><path class="cls-1" d="M163.5,168.86a13.25,13.25,0,1,0-13.26-13.24A13.25,13.25,0,0,0,163.5,168.86Zm0-20.55a7.3,7.3,0,1,1-7.32,7.31A7.31,7.31,0,0,1,163.5,148.31Z"/><path class="cls-1" d="M163.51,181a25.38,25.38,0,1,0-25.4-25.35A25.38,25.38,0,0,0,163.51,181Zm0-44.81a19.43,19.43,0,1,1-19.46,19.46A19.46,19.46,0,0,1,163.51,136.18Z"/><path class="cls-1" d="M132,113.05a3,3,0,0,0-3.69.41l-7,7a3,3,0,0,0-.41,3.69l7.13,11.26a40.73,40.73,0,0,0-3.91,9.45l-13,2.9a3,3,0,0,0-2.32,2.9v9.91a3,3,0,0,0,2.32,2.9l13,2.9a40.38,40.38,0,0,0,3.91,9.44l-7.13,11.27a3,3,0,0,0,.41,3.69l7,7a3,3,0,0,0,3.69.41L143.28,191a40.76,40.76,0,0,0,9.45,3.92l2.9,13a3,3,0,0,0,2.9,2.32h9.91a3,3,0,0,0,2.9-2.32l2.9-13a40.05,40.05,0,0,0,9.45-3.92L195,198.18a3,3,0,0,0,3.69-.41l7-7a3,3,0,0,0,.41-3.69l-7.14-11.27a40.69,40.69,0,0,0,3.92-9.44l13-2.9a3,3,0,0,0,2.32-2.9v-9.91a3,3,0,0,0-2.32-2.9l-13-2.9a40.76,40.76,0,0,0-3.92-9.45l7.14-11.26a3,3,0,0,0-.41-3.69l-7-7a3,3,0,0,0-3.69-.41l-11.26,7.15a40.65,40.65,0,0,0-9.45-3.93l-2.9-13a3,3,0,0,0-2.9-2.33h-9.91a3,3,0,0,0-2.9,2.33l-2.9,13a40.65,40.65,0,0,0-9.45,3.93Zm23.87,8.55a3,3,0,0,0,2.24-2.24l2.78-12.47h5.15l2.78,12.47a3,3,0,0,0,2.24,2.24,34.83,34.83,0,0,1,11,4.6,3,3,0,0,0,3.2,0l10.8-6.86,3.64,3.64-6.85,10.8a3,3,0,0,0,0,3.18,34.84,34.84,0,0,1,4.58,11,3,3,0,0,0,2.25,2.26L212.2,153v5.15L199.74,161a3,3,0,0,0-2.25,2.26,34.93,34.93,0,0,1-4.58,11,3,3,0,0,0,0,3.17l6.85,10.81-3.64,3.64L185.31,185a3,3,0,0,0-3.18,0,34.42,34.42,0,0,1-11,4.57,3,3,0,0,0-2.26,2.25l-2.78,12.46h-5.15l-2.78-12.46a3,3,0,0,0-2.26-2.25,34.84,34.84,0,0,1-11-4.58,3,3,0,0,0-3.18,0l-10.8,6.85-3.64-3.64,6.84-10.81a3,3,0,0,0,0-3.18,34.42,34.42,0,0,1-4.57-11,3,3,0,0,0-2.25-2.26l-12.46-2.78V153l12.46-2.78a3,3,0,0,0,2.25-2.26,34.81,34.81,0,0,1,4.57-11,3,3,0,0,0,0-3.18L127.21,123l3.64-3.64,10.8,6.86a3,3,0,0,0,3.19,0A34.88,34.88,0,0,1,155.89,121.6Z"/><path class="cls-1" d="M163.48,284.54a11.88,11.88,0,1,0,11.89,11.88A11.89,11.89,0,0,0,163.48,284.54Zm0,17.82a5.94,5.94,0,1,1,6-5.94A5.95,5.95,0,0,1,163.48,302.36Z"/><path class="cls-1" d="M172.4,58.77h-18a3,3,0,0,0,0,5.94h18a3,3,0,1,0,0-5.94Z"/><path class="cls-1" d="M228.84,40.94H98.33A27.06,27.06,0,0,0,71.2,67.88V121.2c0,73.65.37,19,0,172.05a26.87,26.87,0,0,0,26.73,26.94H228.84a27,27,0,0,0,26.93-26.94V67.88A27,27,0,0,0,228.84,40.94Zm21,231.72H200.67L249.83,233Zm0-187.16h-24a3,3,0,1,0,0,5.94h24v6h-24a3,3,0,0,0,0,5.94h24v5.94h-24a3,3,0,0,0,0,5.94h24v5.94h-24a3,3,0,0,0,0,5.94h24v98.32L191.2,272.66h-114l.14-59.46-.18-86.71,58.62-46.93H249.83V85.5ZM77.14,118.88V79.56h49.12Zm151.7,195.37H97.93a20.91,20.91,0,0,1-20.79-21l0-14.66H249.83v14.65A21,21,0,0,1,228.84,314.25Zm21-240.63H77.14V67.88a21.12,21.12,0,0,1,21.19-21H228.84a21,21,0,0,1,21,21v5.74Z"/><path class="cls-1" d="M196.16,231.07H89A3,3,0,1,0,89,237H196.16a3,3,0,0,0,0-5.94Z"/><path class="cls-1" d="M175.37,243H89a3,3,0,1,0,0,5.94h86.35a3,3,0,1,0,0-5.94Z"/><path class="cls-1" d="M151.6,254.83H89a3,3,0,0,0,0,5.94H151.6a3,3,0,0,0,0-5.94Z"/><path class="cls-1" d="M279.34,94.41a14.87,14.87,0,0,0-14.85,14.86V269.69a3,3,0,0,0,.31,1.32l11.88,23.77a3,3,0,0,0,5.32,0L293.88,271a2.88,2.88,0,0,0,.31-1.32V109.27A14.87,14.87,0,0,0,279.34,94.41Zm-8.91,35.65h17.82V139H270.43Zm8.91-29.7a8.91,8.91,0,0,1,8.91,8.91v14.85H270.43V109.27A8.92,8.92,0,0,1,279.34,100.36Zm0,186.45L270.43,269V144.92h17.82V269Z"/><path class="cls-1" d="M53.37,228.1A14.85,14.85,0,1,0,68.22,243,14.86,14.86,0,0,0,53.37,228.1Zm0,23.76A8.91,8.91,0,1,1,62.28,243,8.92,8.92,0,0,1,53.37,251.86Z"/><path class="cls-1" d="M289.54,85.5a19.31,19.31,0,1,0-19.31-19.31A19.33,19.33,0,0,0,289.54,85.5Zm0-32.68a13.37,13.37,0,1,1-13.37,13.37A13.39,13.39,0,0,1,289.54,52.82Z"/><circle class="cls-1" cx="304.39" cy="101.84" r="4.46"/><circle class="cls-1" cx="301.42" cy="291.96" r="4.46"/><circle class="cls-1" cx="59.31" cy="277.11" r="4.46"/><circle class="cls-1" cx="48.91" cy="185.02" r="4.46"/><circle class="cls-1" cx="54.86" cy="72.13" r="4.46"/></svg>