<svg id="Layer_1" data-name="Layer 1" xmlns="http://www.w3.org/2000/svg" viewBox="0 0 358 355"><defs><style>.cls-1{fill:#ec008c;}</style></defs><path class="cls-1" d="M100.62,100.67l-39.43-18a3.47,3.47,0,0,0-2.82,6.34L96,106.3v67.25L58.37,189.39A3.23,3.23,0,0,0,56.61,194a3.37,3.37,0,0,0,3.17,2.11,2.14,2.14,0,0,0,1.41-.35l39.43-16.55a3.37,3.37,0,0,0,2.11-3.17V103.84A3.37,3.37,0,0,0,100.62,100.67Z"/><path class="cls-1" d="M67.17,175.31V103.84a1.41,1.41,0,1,0-2.82,0v71.47a1.41,1.41,0,1,0,2.82,0Z"/><path class="cls-1" d="M80.9,162.28V116.87a1.41,1.41,0,0,0-2.82,0v45.41a1.41,1.41,0,1,0,2.82,0Z"/><path class="cls-1" d="M300.59,84.12A3.5,3.5,0,0,0,296,82.36l-39.78,18.31a3.37,3.37,0,0,0-2.11,3.17v71.82a3.07,3.07,0,0,0,2.11,3.17L296,195.38a2.14,2.14,0,0,0,1.41.35,3.09,3.09,0,0,0,3.17-2.11,3.49,3.49,0,0,0-1.76-4.58L261.16,173.2V106.3l37.67-17.25A4,4,0,0,0,300.59,84.12Z"/><path class="cls-1" d="M289.68,103.84v71.47a1.41,1.41,0,1,0,2.81,0V103.84a1.41,1.41,0,1,0-2.81,0Z"/><path class="cls-1" d="M276.3,116.87v45.41a1.41,1.41,0,0,0,2.82,0V116.87a1.41,1.41,0,0,0-2.82,0Z"/><path class="cls-1" d="M49.57,265.44A3.79,3.79,0,0,0,53.09,269h0a3.53,3.53,0,0,0,3.52-3.52c0-1.41-.71-27.46,18.31-44-2.47-.7-4.93-1.76-7.4-2.46C48.86,237.62,49.57,265.09,49.57,265.44Z"/><path class="cls-1" d="M281.23,221.08c18.66,16.9,18.31,42.6,18.31,44a3.32,3.32,0,0,0,3.52,3.52h0a3.53,3.53,0,0,0,3.52-3.52c0-.36.7-27.47-18-46.83A63.83,63.83,0,0,1,281.23,221.08Z"/><path class="cls-1" d="M218.91,51a51.05,51.05,0,0,0-81.68,0C87.94,54.9,45.69,66.17,45.69,83.42V194.67c0,8.45,9.86,15.14,25.35,20.77,2.47.71,5.28,1.76,8.1,2.47,25.7,7.39,63,10.91,99.28,10.91,35.91,0,73.23-3.87,98.94-10.91,2.81-.71,5.63-1.76,8.09-2.47,15.85-5.28,25.35-12.32,25.35-20.77V83.42C310.8,65.82,268.2,54.9,218.91,51ZM178.07,37.65a44.87,44.87,0,0,1,31,12.67c-10.21-.7-20.77-1-31-1s-20.77.35-31,1A43.38,43.38,0,0,1,178.07,37.65Zm0,184.13c-38,0-69-3.87-90.48-8.8a70.67,70.67,0,0,1,16.55-4.93c40.49-6.34,49.64-26.05,51.4-36.61,6.69,4.57,14.08,7.39,22.53,7.39a40.09,40.09,0,0,0,22.53-7.39c1.76,10.56,10.92,29.92,51.41,36.61a73.9,73.9,0,0,1,16.9,4.93C246.73,217.91,216.1,221.78,178.07,221.78ZM142.51,104.19c-.35-.7-1-.7-1.76-.35L123.5,114.4v-3.87l18.66-11.62c.71-.35.71-1.06.35-1.76s-1-.7-1.76-.35L123.5,107.36V86.59a4.28,4.28,0,0,1,4.23-4.23h100a4.29,4.29,0,0,1,4.23,4.23V122.5a4.07,4.07,0,0,1-4.23,4.22H196.38L189,114.4a12.89,12.89,0,0,0-10.92-6.34,12.43,12.43,0,0,0-10.91,6.34l-7.4,12.68h-32a4.29,4.29,0,0,1-4.23-4.23v-4.93l18.66-11.62C142.87,105.6,143.22,104.9,142.51,104.19Zm19.37,29.93a3.39,3.39,0,0,0,3.17-2.12v-.35l7.74-13.73a5.73,5.73,0,0,1,9.86,0l7.74,13.38.36.7a3.38,3.38,0,0,0,3.16,2.12h25c-6.69,19-22.53,37.67-40.84,37.67s-34.15-18.66-40.84-38h24.65ZM303.76,88V194.67c0,4.93-8.8,10.56-25.35,15.49A63.54,63.54,0,0,0,253.06,201c-45.06-7-46.12-30.63-45.77-34.86,8.81-8.44,15.49-20.06,19.37-32h1.76a11.12,11.12,0,0,0,11.26-11.27v-4.93h2.12a3.33,3.33,0,0,0,3.52-3.52V98.91a3.33,3.33,0,0,0-3.52-3.52h-2.12V86.94a11.21,11.21,0,0,0-10.56-11.27A82.67,82.67,0,0,0,226,63c-2.46-.35-5.28-.35-8.09-.71a43.42,43.42,0,0,1,4.22,13h-88a40.7,40.7,0,0,1,4.23-13c-2.82.36-5.28.36-8.1.71A37.25,37.25,0,0,0,127,75.67a11.22,11.22,0,0,0-10.56,11.27v8.45h-2.11a3.33,3.33,0,0,0-3.52,3.52V114.4a3.33,3.33,0,0,0,3.52,3.52h2.11v4.93a11.13,11.13,0,0,0,11.27,11.27h1.76c3.87,12,10.56,23.59,19.36,32,0,3.88-1.06,27.82-45.77,34.86-10.21,1.76-18.66,4.93-25.35,9.15-16.19-4.93-25.35-10.56-25.35-15.49V83.42c0-8.8,29.58-20.42,79.92-25,2.82-.35,5.64-.35,8.45-.7,11.62-.71,23.94-1.41,37.32-1.41s25.7.35,37,1.41c2.82.35,5.63.35,8.45.7,50.34,4.58,79.92,16.2,79.92,25.35V88Z"/></svg>