<svg id="Layer_1" data-name="Layer 1" xmlns="http://www.w3.org/2000/svg" viewBox="0 0 358 355"><defs><style>.cls-1{fill:#662d91;}</style></defs><path class="cls-1" d="M329.6,63.83H37.08A11.5,11.5,0,0,0,25.59,75.31V286.66a11.5,11.5,0,0,0,11.49,11.48H329.6a11.5,11.5,0,0,0,11.49-11.48V75.31A11.5,11.5,0,0,0,329.6,63.83ZM37.08,68.42H329.6a6.9,6.9,0,0,1,6.89,6.89V109a4.77,4.77,0,0,0-.76-.07H31a6.29,6.29,0,0,0-.77.07V75.31A6.91,6.91,0,0,1,37.08,68.42Zm-6.9,45.86a.77.77,0,0,1,.77-.77H335.72a.77.77,0,0,1,.77.77V281.72a.77.77,0,0,1-.77.76H31a.77.77,0,0,1-.77-.76ZM329.6,293.55H37.08A6.89,6.89,0,0,1,30.22,287a5.82,5.82,0,0,0,.73.07H335.72a5.65,5.65,0,0,0,.73-.07A6.87,6.87,0,0,1,329.6,293.55Z"/><path class="cls-1" d="M102.34,98.54a9.77,9.77,0,1,0-9.77-9.77A9.78,9.78,0,0,0,102.34,98.54Zm0-14.93a5.17,5.17,0,1,1-5.17,5.17A5.18,5.18,0,0,1,102.34,83.61Z"/><path class="cls-1" d="M77.4,98.54a9.77,9.77,0,1,0-9.77-9.77A9.78,9.78,0,0,0,77.4,98.54Zm0-14.93a5.17,5.17,0,1,1-5.17,5.17A5.18,5.18,0,0,1,77.4,83.61Z"/><path class="cls-1" d="M52.45,98.54a9.77,9.77,0,1,0-9.76-9.77A9.78,9.78,0,0,0,52.45,98.54Zm0-14.93a5.17,5.17,0,1,1-5.17,5.17A5.17,5.17,0,0,1,52.45,83.61Z"/><path class="cls-1" d="M257.05,201.74,227.83,231c-3.34,3.59-1.46,6.51,4,11.7,3,2.87,5.65,4.32,7.8,4.32a4.63,4.63,0,0,0,3.29-1.4l39.53-39.52a7.58,7.58,0,0,0,1.56-5.3,5.68,5.68,0,0,0-1.95-3.92l-39.33-39.28a5.17,5.17,0,0,0-3.61-1.82c-2.43,0-4.84,2.41-7.67,5.23-2.23,2.23-4.15,4.15-5,6-.59,1.32-1,3.14,1.39,5.51Zm-22.29-37.48a27.11,27.11,0,0,1,4.28-3.79,3.39,3.39,0,0,1,.46.41L279,200.31a1.22,1.22,0,0,1,.46.94,3.48,3.48,0,0,1-.38,1.78l-39.41,39.42,0,2.3v-2.3s-1.44,0-4.64-3.07c-3.76-3.56-4.19-4.65-4.27-4.69a2.45,2.45,0,0,1,.4-.49l32.4-32.47-32.4-32.43a3.58,3.58,0,0,1-.4-.47C231.25,167.76,233,166,234.76,164.26Z"/><path class="cls-1" d="M123.78,245.69a4.59,4.59,0,0,0,3.24,1.36c2.15,0,4.78-1.45,7.81-4.32,5.48-5.19,7.35-8.11,4-11.76l-29.16-29.23,29.15-29.19c2.37-2.35,2-4.18,1.4-5.5-.83-1.86-2.76-3.79-5-6-2.8-2.8-5.21-5.21-7.65-5.21a5.19,5.19,0,0,0-3.61,1.82L84.76,196.76a5.81,5.81,0,0,0-2.11,4.09,7.59,7.59,0,0,0,1.69,5.44ZM87.85,200.17l39.32-39.29a3.07,3.07,0,0,1,.46-.4,27.66,27.66,0,0,1,4.3,3.79,25.74,25.74,0,0,1,4,4.58c-.08.1-.21.25-.4.45l-32.4,32.43,32.34,32.41c.25.27.35.43.41.4-.1.34-.71,1.52-4.22,4.84-3.21,3-4.63,3.07-4.65,3.07L87.73,203.19a3.14,3.14,0,0,1-.51-1.93A1.42,1.42,0,0,1,87.85,200.17Z"/><path class="cls-1" d="M158.49,252.85c3.47,1.69,5.68,2.41,7.41,2.41a5.12,5.12,0,0,0,4.79-3.36l46.65-95.63c2.42-5-.88-7.82-6.57-10.59-3.11-1.52-5.39-2.23-7.2-2.23a5.49,5.49,0,0,0-5.19,3.58l-46.65,95.62a5.18,5.18,0,0,0,.06,5.56C152.8,249.68,154.74,251,158.49,252.85Zm-2.63-8.19L202.51,149c.48-1,.61-1,1.06-1,.72,0,2.22.3,5.19,1.76,5.35,2.6,4.93,3.46,4.45,4.45l-46.65,95.62a3,3,0,0,1-.46.77.71.71,0,0,1-.2,0c-.93,0-2.75-.66-5.4-1.94-4.41-2.16-4.92-3-5-3.17A3.12,3.12,0,0,1,155.86,244.66Z"/></svg>