<svg id="Layer_1" data-name="Layer 1" xmlns="http://www.w3.org/2000/svg" viewBox="0 0 358 355"><defs><style>.cls-1{fill:#fff200;}</style></defs><rect class="cls-1" x="181.58" y="61.77" width="10.32" height="10.32"/><rect class="cls-1" x="160.93" y="61.77" width="10.32" height="10.32"/><rect class="cls-1" x="171.26" y="278.56" width="10.32" height="10.32"/><rect class="cls-1" x="68.02" y="123.71" width="10.32" height="10.32"/><rect class="cls-1" x="88.67" y="123.71" width="10.32" height="10.32"/><rect class="cls-1" x="109.32" y="123.71" width="10.32" height="10.32"/><rect class="cls-1" x="129.96" y="123.71" width="10.32" height="10.32"/><rect class="cls-1" x="150.61" y="123.71" width="10.32" height="10.32"/><rect class="cls-1" x="228.04" y="216.62" width="10.32" height="10.32"/><rect class="cls-1" x="248.68" y="216.62" width="41.29" height="10.32"/><rect class="cls-1" x="228.04" y="237.27" width="61.94" height="10.32"/><rect class="cls-1" x="228.04" y="257.92" width="61.94" height="10.32"/><path class="cls-1" d="M88.67,46.28v56.78H52.54a5.16,5.16,0,0,0-5.17,5.16v41.3a5.16,5.16,0,0,0,5.17,5.16H88.67V304.37a5.16,5.16,0,0,0,5.16,5.16H259a5.16,5.16,0,0,0,5.16-5.16V288.89h41.29a5.16,5.16,0,0,0,5.17-5.17V201.14a5.16,5.16,0,0,0-5.17-5.17H264.17V46.28A5.16,5.16,0,0,0,259,41.12H93.83A5.16,5.16,0,0,0,88.67,46.28Zm-31,67.1H171.26v31H57.7ZM253.85,299.21H99v-31h108.4v15.48a5.16,5.16,0,0,0,5.16,5.17h41.3Zm46.45-20.65H217.71V206.3H300.3ZM212.55,196a5.16,5.16,0,0,0-5.16,5.17v56.78H99V154.68h77.43a5.16,5.16,0,0,0,5.16-5.16v-41.3a5.16,5.16,0,0,0-5.16-5.16H99V92.74H253.85V196Zm41.3-144.53v31H99v-31Z"/><path class="cls-1" d="M176.42,170.16H155.77a5.17,5.17,0,0,0-5.16,5.17V196a5.17,5.17,0,0,0,5.16,5.17h20.65a5.17,5.17,0,0,0,5.16-5.17V175.33A5.17,5.17,0,0,0,176.42,170.16Zm-5.16,20.65H160.93V180.49h10.33Z"/><path class="cls-1" d="M114.48,201.14h20.64a5.17,5.17,0,0,0,5.17-5.17V175.33a5.17,5.17,0,0,0-5.17-5.17H114.48a5.17,5.17,0,0,0-5.16,5.17V196A5.17,5.17,0,0,0,114.48,201.14Zm5.16-20.65H130v10.32H119.64Z"/><path class="cls-1" d="M232.13,138.45a20.65,20.65,0,1,0-29.2-.37c.12.12.24.25.37.37a25.82,25.82,0,0,0-11.4,21.39v20.65a5.17,5.17,0,0,0,5.17,5.16h41.29a5.16,5.16,0,0,0,5.16-5.16V159.84A25.78,25.78,0,0,0,232.13,138.45Zm-24.74-14.74A10.33,10.33,0,1,1,217.71,134,10.33,10.33,0,0,1,207.39,123.71Zm25.81,51.62h-31V159.84a15.49,15.49,0,0,1,31,0Z"/><rect class="cls-1" x="109.32" y="211.46" width="10.32" height="10.32"/><rect class="cls-1" x="129.96" y="211.46" width="51.62" height="10.32"/><rect class="cls-1" x="109.32" y="232.11" width="72.27" height="10.32"/><rect class="cls-1" x="145.45" y="319.86" width="103.24" height="10.32"/><rect class="cls-1" x="68.02" y="170.16" width="10.32" height="82.59"/><path class="cls-1" d="M284.82,41.12a20.66,20.66,0,0,0-20.65-20.65h-67.1V30.8h67.1a10.32,10.32,0,0,1,10.32,10.32v82.59h10.33Z"/><rect class="cls-1" x="274.49" y="134.03" width="10.32" height="10.32"/></svg>