<svg id="Layer_1" data-name="Layer 1" xmlns="http://www.w3.org/2000/svg" viewBox="0 0 358 355"><defs><style>.cls-1{fill:#fff;}</style></defs><circle class="cls-1" cx="188.43" cy="262.17" r="6.39"/><path class="cls-1" d="M248.46,153h16a3.2,3.2,0,0,0,0-6.39h-16a3.2,3.2,0,1,0,0,6.39Z"/><path class="cls-1" d="M274,153h12.77a3.2,3.2,0,0,0,0-6.39H274a3.2,3.2,0,1,0,0,6.39Z"/><path class="cls-1" d="M248.46,165.75h31.92a3.2,3.2,0,1,0,0-6.39H248.46a3.2,3.2,0,1,0,0,6.39Z"/><path class="cls-1" d="M296.35,159.36H290a3.2,3.2,0,0,0,0,6.39h6.39a3.2,3.2,0,0,0,0-6.39Z"/><path class="cls-1" d="M248.46,178.52H258a3.2,3.2,0,1,0,0-6.39h-9.57a3.2,3.2,0,1,0,0,6.39Z"/><path class="cls-1" d="M264.42,175.33a3.19,3.19,0,0,0,3.19,3.19h25.54a3.2,3.2,0,1,0,0-6.39H267.61A3.19,3.19,0,0,0,264.42,175.33Z"/><path class="cls-1" d="M248.46,191.29h12.77a3.19,3.19,0,0,0,0-6.38H248.46a3.19,3.19,0,1,0,0,6.38Z"/><path class="cls-1" d="M296.35,184.91H270.8a3.19,3.19,0,0,0,0,6.38h25.55a3.19,3.19,0,0,0,0-6.38Z"/><path class="cls-1" d="M248.46,204.06h16a3.19,3.19,0,0,0,0-6.38h-16a3.19,3.19,0,1,0,0,6.38Z"/><path class="cls-1" d="M290,204.06a3.19,3.19,0,0,0,0-6.38H274a3.19,3.19,0,1,0,0,6.38Z"/><path class="cls-1" d="M248.46,216.83h31.92a3.19,3.19,0,1,0,0-6.38H248.46a3.19,3.19,0,1,0,0,6.38Z"/><path class="cls-1" d="M296.35,210.45H290a3.19,3.19,0,1,0,0,6.38h6.39a3.19,3.19,0,1,0,0-6.38Z"/><path class="cls-1" d="M258,223.22h-9.57a3.19,3.19,0,1,0,0,6.38H258a3.19,3.19,0,1,0,0-6.38Z"/><path class="cls-1" d="M293.15,223.22H267.61a3.19,3.19,0,0,0,0,6.38h25.54a3.19,3.19,0,1,0,0-6.38Z"/><path class="cls-1" d="M308.8,73.16H238.88V62.3A21.1,21.1,0,0,0,217.8,41.23H213a16,16,0,0,0-31.28,0H65.19A21.1,21.1,0,0,0,44.11,62.3V261.21a22.7,22.7,0,0,0,22.67,22.67h86.53V319h-8.94a3.2,3.2,0,0,0,0,6.39h88.12a3.2,3.2,0,0,0,0-6.39h-8.94V283.88H308.8a22.7,22.7,0,0,0,22.67-22.67V95.83A22.7,22.7,0,0,0,308.8,73.16ZM69.66,232.8H210.14a3.2,3.2,0,0,0,0-6.39H69.66V220h79.82a3.2,3.2,0,0,0,0-6.39H69.66V178.52H150.2L195.44,213a3.19,3.19,0,0,0,5.12-2.54V178.52H217.8a21.1,21.1,0,0,0,21.08-21.07V98.7h67.05V239.18H69.66ZM187.79,63.58H207v57.47H187.79ZM207,57.19H187.79V54H207Zm-19.16,70.24H207v8.46l-9.58,12-9.58-12Zm9.58-92.59A9.59,9.59,0,0,1,207,44.42v3.19H187.79V44.42A9.59,9.59,0,0,1,197.37,34.84ZM50.5,62.3A14.71,14.71,0,0,1,65.19,47.61H181.41V137a3.16,3.16,0,0,0,.7,2l12.77,16a3.18,3.18,0,0,0,5,0l12.77-16a3.16,3.16,0,0,0,.7-2V47.61h4.47A14.71,14.71,0,0,1,232.49,62.3v95.15a14.7,14.7,0,0,1-14.69,14.68H197.37a3.19,3.19,0,0,0-3.19,3.2V204l-41-31.21a3.18,3.18,0,0,0-1.94-.66H65.19A14.7,14.7,0,0,1,50.5,157.45ZM159.69,283.88h9.58V319h-9.58Zm16,35.12V283.88H201.2V319Zm41.51,0h-9.58V283.88h9.58Zm107.91-57.79A16.3,16.3,0,0,1,308.8,277.5h-242A16.3,16.3,0,0,1,50.5,261.21V172.54a21,21,0,0,0,12.77,5.89v63.95a3.19,3.19,0,0,0,3.19,3.19H309.12a3.19,3.19,0,0,0,3.19-3.19V95.51a3.19,3.19,0,0,0-3.19-3.2H238.88V79.54H308.8a16.3,16.3,0,0,1,16.28,16.29Z"/><circle class="cls-1" cx="256.44" cy="52.4" r="4.79"/><circle class="cls-1" cx="288.37" cy="42.82" r="4.79"/><circle class="cls-1" cx="240.47" cy="295.06" r="4.79"/><circle class="cls-1" cx="323.49" cy="295.06" r="4.79"/><circle class="cls-1" cx="138.3" cy="291.86" r="4.79"/><circle class="cls-1" cx="64.87" cy="304.63" r="4.79"/><path class="cls-1" d="M59.38,118.33l13.05,2.91a40.81,40.81,0,0,0,3.9,9.41L69.17,142a3.19,3.19,0,0,0,.44,4L76.7,153a3.19,3.19,0,0,0,4,.44L92,146.3a41.48,41.48,0,0,0,9.41,3.9l2.91,13.05a3.21,3.21,0,0,0,3.12,2.5h10a3.19,3.19,0,0,0,3.11-2.5l2.92-13.05a40.74,40.74,0,0,0,9.41-3.9l11.32,7.17a3.19,3.19,0,0,0,4-.44l7.09-7.09a3.19,3.19,0,0,0,.44-4l-7.17-11.32a40.66,40.66,0,0,0,3.9-9.41l13.06-2.91a3.2,3.2,0,0,0,2.49-3.12v-10a3.2,3.2,0,0,0-2.49-3.12l-13.06-2.91a40.66,40.66,0,0,0-3.9-9.41l7.17-11.32a3.19,3.19,0,0,0-.44-4l-7.09-7.09a3.19,3.19,0,0,0-4-.44L132.9,74.11a41.36,41.36,0,0,0-9.41-3.91l-2.92-13.06a3.19,3.19,0,0,0-3.11-2.5h-10a3.19,3.19,0,0,0-3.11,2.5L101.39,70.2A41.36,41.36,0,0,0,92,74.11L80.66,66.92a3.19,3.19,0,0,0-4,.44l-7.09,7.09a3.19,3.19,0,0,0-.44,4l7.16,11.32a41.56,41.56,0,0,0-3.9,9.41l-13.05,2.91a3.19,3.19,0,0,0-2.49,3.12v10A3.19,3.19,0,0,0,59.38,118.33Zm3.89-10.59L75.75,105a3.2,3.2,0,0,0,2.42-2.43A35.1,35.1,0,0,1,82.78,91.4a3.2,3.2,0,0,0,0-3.42L75.93,77.16l3.47-3.47,10.83,6.87a3.18,3.18,0,0,0,3.42,0,35.24,35.24,0,0,1,11.13-4.63,3.18,3.18,0,0,0,2.41-2.41L110,61h4.92l2.79,12.48a3.18,3.18,0,0,0,2.41,2.41,35.09,35.09,0,0,1,11.12,4.63,3.2,3.2,0,0,0,3.43,0l10.83-6.87L149,77.16,142.1,88a3.2,3.2,0,0,0,0,3.42,35.1,35.1,0,0,1,4.61,11.12,3.2,3.2,0,0,0,2.42,2.43l12.48,2.79v4.92l-12.48,2.78a3.2,3.2,0,0,0-2.42,2.43A35.1,35.1,0,0,1,142.1,129a3.2,3.2,0,0,0,0,3.42L149,143.23l-3.48,3.48-10.82-6.86a3.18,3.18,0,0,0-3.42,0,34.78,34.78,0,0,1-11.12,4.6,3.19,3.19,0,0,0-2.42,2.42l-2.79,12.48H110l-2.79-12.48a3.19,3.19,0,0,0-2.42-2.42,34.83,34.83,0,0,1-11.13-4.61,3.18,3.18,0,0,0-3.41,0L79.4,146.71l-3.47-3.48,6.85-10.82a3.22,3.22,0,0,0,0-3.43,34.62,34.62,0,0,1-4.61-11.11,3.2,3.2,0,0,0-2.42-2.43l-12.48-2.79Z"/><path class="cls-1" d="M112.45,123.43A13.24,13.24,0,1,0,99.2,110.21,13.24,13.24,0,0,0,112.45,123.43Zm0-20.09a6.86,6.86,0,1,1-6.86,6.87A6.86,6.86,0,0,1,112.45,103.34Z"/><path class="cls-1" d="M112.45,137.41a27.22,27.22,0,1,0-27.23-27.2A27.24,27.24,0,0,0,112.45,137.41Zm0-48a20.84,20.84,0,1,1-20.84,20.85A20.86,20.86,0,0,1,112.45,89.36Z"/><path class="cls-1" d="M318.7,66.77a16,16,0,1,0-16-16A16,16,0,0,0,318.7,66.77Zm0-25.54a9.58,9.58,0,1,1-9.58,9.58A9.59,9.59,0,0,1,318.7,41.23Z"/><path class="cls-1" d="M283.58,290.27a16,16,0,1,0,16,16A16,16,0,0,0,283.58,290.27Zm0,25.54a9.58,9.58,0,1,1,9.57-9.58A9.59,9.59,0,0,1,283.58,315.81Z"/><path class="cls-1" d="M104.78,296.65a12.78,12.78,0,1,0,12.77,12.78A12.79,12.79,0,0,0,104.78,296.65Zm0,19.16a6.39,6.39,0,1,1,6.38-6.38A6.39,6.39,0,0,1,104.78,315.81Z"/></svg>