<svg id="Layer_1" data-name="Layer 1" xmlns="http://www.w3.org/2000/svg" viewBox="0 0 358 355"><defs><style>.cls-1{fill:#2b3990;}</style></defs><path class="cls-1" d="M175.21,136.65A31.79,31.79,0,1,0,207,168.44,31.87,31.87,0,0,0,175.21,136.65Z"/><path class="cls-1" d="M26.88,168.44c0,9.8,4.93,18.85,12.86,26.49s19,14.16,32.34,19.61C98.83,225.44,135.13,232,175.21,232s76.37-6.56,103.13-17.46c13.38-5.45,24.4-12,32.33-19.61s12.86-16.69,12.86-26.49-4.93-18.87-12.86-26.51-18.95-14.16-32.33-19.61c-26.76-10.9-63.06-17.45-103.13-17.45s-76.38,6.55-103.13,17.45c-13.38,5.45-24.4,12-32.34,19.61S26.88,158.63,26.88,168.44Zm10.61,0c0-6.29,3.08-12.56,9.62-18.86s16.47-12.33,29-17.43c25-10.19,60.22-16.68,99.13-16.68s74.12,6.49,99.12,16.68c12.51,5.1,22.43,11.13,29,17.43s9.63,12.57,9.63,18.86-3.08,12.55-9.63,18.85-16.46,12.34-29,17.43c-25,10.19-60.21,16.67-99.12,16.67s-74.12-6.48-99.13-16.67c-12.5-5.09-22.43-11.13-29-17.43S37.49,174.72,37.49,168.44Z"/><path class="cls-1" d="M252.53,302.23c8.54-4.93,13.78-13.93,16.23-24.88s2.32-24.11.06-38.88c-4.55-29.53-17.82-65.54-38.71-101.69S184.63,71.14,161.3,52.44c-11.66-9.35-23-16-33.73-19.4s-21.14-3.32-29.68,1.61S84.11,48.57,81.66,59.52s-2.32,24.11,0,38.88c4.55,29.53,17.81,65.53,38.71,101.69s45.48,65.64,68.8,84.34c11.66,9.35,23,16,33.73,19.4s21.14,3.32,29.67-1.6ZM247.21,293c-5.34,3.08-12.33,3.45-21.2.67s-19.3-8.76-30.25-17.54c-21.9-17.56-45.92-46.18-66.26-81.38s-33.14-70.28-37.41-98C90,82.92,90,70.92,92,61.85s5.83-14.93,11.18-18,12.33-3.45,21.21-.67,19.3,8.75,30.25,17.53c21.91,17.56,45.91,46.19,66.25,81.38s33.16,70.28,37.43,98c2.14,13.87,2.1,25.88.07,34.95S252.56,290,247.21,293Z"/><path class="cls-1" d="M97.89,302.23c-8.54-4.93-13.79-13.93-16.24-24.88s-2.32-24.11-.05-38.87c4.55-29.53,17.82-65.55,38.71-101.71s45.49-65.64,68.81-84.34c11.66-9.35,23-16,33.72-19.39s21.15-3.32,29.69,1.61,13.78,13.93,16.23,24.87,2.32,24.11.05,38.87c-4.55,29.53-17.81,65.54-38.71,101.7s-45.49,65.65-68.81,84.35c-11.66,9.35-23,16-33.72,19.39s-21.14,3.32-29.68-1.6ZM103.2,293c5.35,3.08,12.33,3.46,21.2.68s19.3-8.77,30.25-17.55c21.91-17.56,45.92-46.18,66.26-81.38s33.14-70.27,37.41-98c2.14-13.87,2.12-25.88.09-34.95s-5.84-14.93-11.18-18S234.9,40.38,226,43.16s-19.31,8.76-30.26,17.54c-21.9,17.56-45.91,46.18-66.25,81.38s-33.15,70.27-37.42,98C90,254,90,266,92,275S97.85,290,103.2,293Z"/></svg>