<svg id="Layer_1" data-name="Layer 1" xmlns="http://www.w3.org/2000/svg" viewBox="0 0 358 355"><defs><style>.cls-1{fill:#d7df23;}</style></defs><path class="cls-1" d="M107.74,220H67a2.26,2.26,0,0,1-2.26-2.26V190.62a2.26,2.26,0,1,1,4.52,0V215.5h38.47a2.27,2.27,0,0,1,0,4.53Z"/><path class="cls-1" d="M284.21,220H166.56a2.27,2.27,0,0,1,0-4.53H281.94V102.38H171.08a2.26,2.26,0,0,1,0-4.52H284.21a2.26,2.26,0,0,1,2.26,2.26V217.77A2.26,2.26,0,0,1,284.21,220Z"/><path class="cls-1" d="M139.41,292.43a2.05,2.05,0,0,1-.49-.06,2.26,2.26,0,0,1-1.72-2.7L146.25,249a2.26,2.26,0,0,1,4.42,1l-9,40.72A2.26,2.26,0,0,1,139.41,292.43Z"/><path class="cls-1" d="M211.81,292.43a2.26,2.26,0,0,1-2.21-1.78l-9-40.72a2.26,2.26,0,0,1,4.42-1L214,289.67a2.26,2.26,0,0,1-1.72,2.7A2.12,2.12,0,0,1,211.81,292.43Z"/><path class="cls-1" d="M239,251.7H65.76a14.71,14.71,0,0,1-14.59-14.79V190.62a2.27,2.27,0,1,1,4.53,0v46.29a10.18,10.18,0,0,0,10.06,10.27H239a2.26,2.26,0,0,1,0,4.52Z"/><path class="cls-1" d="M285.45,251.7H275.16a2.26,2.26,0,1,1,0-4.52h10.29a10.18,10.18,0,0,0,10.07-10.27V99.07a10.17,10.17,0,0,0-10.07-10.26H171.08a2.27,2.27,0,0,1,0-4.53H285.45A14.71,14.71,0,0,1,300,99.07V236.91A14.7,14.7,0,0,1,285.45,251.7Z"/><path class="cls-1" d="M263.84,301.48H250.27a13.6,13.6,0,0,1-13.58-13.58V247.18a13.6,13.6,0,0,1,13.58-13.58h13.57a13.59,13.59,0,0,1,13.58,13.58V287.9A13.59,13.59,0,0,1,263.84,301.48Zm-13.57-63.35a9.06,9.06,0,0,0-9.05,9.05V287.9a9.06,9.06,0,0,0,9.05,9.05h13.57a9.06,9.06,0,0,0,9.05-9.05V247.18a9.06,9.06,0,0,0-9.05-9.05Z"/><path class="cls-1" d="M257.06,260.75a2.27,2.27,0,0,1-2.27-2.26v-9.05a2.27,2.27,0,0,1,4.53,0v9.05A2.26,2.26,0,0,1,257.06,260.75Z"/><path class="cls-1" d="M220.86,301.48h-90.5a6.79,6.79,0,0,1,0-13.58h90.5a6.79,6.79,0,0,1,0,13.58Zm-90.5-9.05a2.26,2.26,0,0,0,0,4.52h90.5a2.26,2.26,0,0,0,0-4.52Z"/><path class="cls-1" d="M171.08,192.88H21.76a2.26,2.26,0,0,1-2.26-2.26V23.2a2.27,2.27,0,0,1,2.26-2.27H171.08a2.27,2.27,0,0,1,2.27,2.27V190.62A2.27,2.27,0,0,1,171.08,192.88ZM24,188.35h144.8V25.46H24Z"/><path class="cls-1" d="M275.16,75.23h-72.4A2.26,2.26,0,0,1,200.5,73V32.25A2.27,2.27,0,0,1,202.76,30h72.4a2.27,2.27,0,0,1,2.26,2.27V73A2.26,2.26,0,0,1,275.16,75.23ZM205,70.71h67.87V34.51H205Z"/><path class="cls-1" d="M270.63,134.06h-86a2.27,2.27,0,0,1-2.26-2.27v-18.1a2.26,2.26,0,0,1,2.26-2.26h86a2.26,2.26,0,0,1,2.26,2.26v18.1A2.27,2.27,0,0,1,270.63,134.06Zm-83.71-4.53h81.45V116H186.92Z"/><path class="cls-1" d="M211.81,179.31H184.66A2.27,2.27,0,0,1,182.4,177v-18.1a2.26,2.26,0,0,1,2.26-2.26h27.15a2.26,2.26,0,0,1,2.26,2.26V177A2.27,2.27,0,0,1,211.81,179.31Zm-24.89-4.53h22.63V161.21H186.92Z"/><path class="cls-1" d="M270.63,179.31H225.38a2.27,2.27,0,0,1-2.26-2.27v-18.1a2.26,2.26,0,0,1,2.26-2.26h45.25a2.26,2.26,0,0,1,2.26,2.26V177A2.27,2.27,0,0,1,270.63,179.31Zm-43-4.53h40.73V161.21H227.64Z"/><path class="cls-1" d="M270.63,206.45h-190a2.26,2.26,0,1,1,0-4.52h190a2.26,2.26,0,0,1,0,4.52Z"/><path class="cls-1" d="M270.63,192.88h-86a2.27,2.27,0,0,1,0-4.53h86a2.27,2.27,0,0,1,0,4.53Z"/><path class="cls-1" d="M270.63,147.63h-86a2.26,2.26,0,1,1,0-4.52h86a2.26,2.26,0,0,1,0,4.52Z"/><path class="cls-1" d="M48.91,61.66A11.32,11.32,0,1,1,60.22,50.35,11.32,11.32,0,0,1,48.91,61.66Zm0-18.1a6.79,6.79,0,1,0,6.79,6.79A6.8,6.8,0,0,0,48.91,43.56Z"/><path class="cls-1" d="M58,75.23H39.86a2.26,2.26,0,1,1,0-4.52H58a2.26,2.26,0,0,1,0,4.52Z"/><path class="cls-1" d="M107.74,75.23H85.11a2.26,2.26,0,1,1,0-4.52h22.63a2.26,2.26,0,1,1,0,4.52Z"/><path class="cls-1" d="M143.93,61.66a11.32,11.32,0,1,1,11.32-11.31A11.32,11.32,0,0,1,143.93,61.66Zm0-18.1a6.79,6.79,0,1,0,6.79,6.79A6.79,6.79,0,0,0,143.93,43.56Z"/><path class="cls-1" d="M153,75.23h-18.1a2.26,2.26,0,1,1,0-4.52H153a2.26,2.26,0,1,1,0,4.52Z"/><path class="cls-1" d="M107.74,61.66H85.11a2.26,2.26,0,0,1-2.26-2.26V41.3A2.27,2.27,0,0,1,85.11,39h22.63A2.27,2.27,0,0,1,110,41.3V59.4A2.27,2.27,0,0,1,107.74,61.66ZM87.37,57.13h18.1V43.56H87.37Z"/><path class="cls-1" d="M153,120.48H39.86a2.26,2.26,0,1,1,0-4.52H153a2.26,2.26,0,1,1,0,4.52Z"/><path class="cls-1" d="M153,174.78H39.86a2.26,2.26,0,1,1,0-4.52H153a2.26,2.26,0,1,1,0,4.52Z"/><path class="cls-1" d="M252.53,48.08h-9.05a2.26,2.26,0,1,1,0-4.52h9.05a2.26,2.26,0,0,1,0,4.52Z"/><path class="cls-1" d="M261.58,61.66h-18.1a2.27,2.27,0,0,1,0-4.53h18.1a2.27,2.27,0,0,1,0,4.53Z"/><path class="cls-1" d="M234.43,61.66h-18.1a2.26,2.26,0,0,1-2.26-2.26V45.82a2.26,2.26,0,0,1,2.26-2.26h18.1a2.26,2.26,0,0,1,2.26,2.26V59.4A2.26,2.26,0,0,1,234.43,61.66ZM218.6,57.13h13.57V48.08H218.6Z"/><path class="cls-1" d="M143.93,220H121.31a2.27,2.27,0,0,1,0-4.53h22.62a2.27,2.27,0,1,1,0,4.53Z"/></svg>