<svg id="Layer_1" data-name="Layer 1" xmlns="http://www.w3.org/2000/svg" viewBox="0 0 358 355"><defs><style>.cls-1{fill:#ed1c24;}</style></defs><path class="cls-1" d="M303.7,142.2a13.31,13.31,0,0,0-13.29,10.45h-35.6v-10H227.75v10h-35.6a13.74,13.74,0,1,0-13.29,17.08,13.29,13.29,0,0,0,13.29-10.44h22.79c-13.77,8.55-23.26,23.26-24.21,39.87h-10v27.06h27.06V199.16h-10a44,44,0,0,1,29.9-38v8.07h27.06v-8.07a43.46,43.46,0,0,1,29.9,38h-10v27.06H301.8V199.16h-10c-.94-16.61-10.44-31.32-24.2-39.87h22.78A13.73,13.73,0,0,0,317.47,156C317.94,148.37,311.77,142.2,303.7,142.2ZM178.86,163.09a6.65,6.65,0,1,1,6.65-6.65C186,159.77,182.66,163.09,178.86,163.09Zm21.84,56.49H187.88V206.76H200.7Zm94.46,0H282.34V206.76h12.82Zm-47.47-57H234.87V149.8h12.82Zm56,.48a6.65,6.65,0,1,1,6.65-6.65C310.82,159.77,307.5,163.09,303.7,163.09Z"/><path class="cls-1" d="M304.65,262.3c-22.31-6.17-41.77-9-58.86-9-17.56,0-27.53,3.32-32.28,5.22a26.15,26.15,0,0,0-7.12-5.7,16.74,16.74,0,0,0-9.49-2.37c-7.6,0-13.77,4.75-17.57,8.07a9.38,9.38,0,0,1-6.64,2.37,19.78,19.78,0,0,1-4.27-.47L163.67,259v4.75c0,6.65,4.27,20.41,22.31,25.16a32.2,32.2,0,0,0,9,1.42,23.78,23.78,0,0,0,19.46-9.49c4.75,1.9,15.19,5.22,32.28,5.22,16.61,0,36.08-2.85,57.91-8.54a7.91,7.91,0,0,0,0-15.19Zm-1.9,8.54c-21.36,5.7-40.35,8.07-56,8.07-22.78,0-31.8-5.69-31.8-5.69l-3.8-2.38-1.9,3.8s-3.8,8.07-14.72,8.07a37.11,37.11,0,0,1-7.12-.95c-10.91-2.85-14.71-9.49-16.13-13.77h1.42a18.29,18.29,0,0,0,11.39-3.79c4.75-4.28,9-6.17,12.82-6.17a11.49,11.49,0,0,1,6.17,1.89,17.22,17.22,0,0,1,6.17,5.7l1.9,3.32,3.32-1.9s9-5.69,31.33-5.69c16.14,0,35.6,2.85,57,9a.47.47,0,0,1,.48.47C303.23,270.37,303.23,270.84,302.75,270.84Z"/><rect class="cls-1" x="238.67" y="266.57" width="7.12" height="7.12"/><rect class="cls-1" x="255.28" y="266.57" width="7.12" height="7.12"/><path class="cls-1" d="M46.9,290.3h98.26V222.42H46.9Zm55.54-34.17L138,232.39v47.47ZM130,283.18H62.56l33.71-22.31Zm-33.7-31.33L62.56,229.54H130Zm-6.65,4.28L54,279.86V232.39Z"/><path class="cls-1" d="M46.9,207.23h98.26V139.35H46.9Zm55.54-33.7L138,149.8v47.47ZM130,200.11H62.56L96.27,177.8Zm-33.7-30.85L62.56,147H130Zm-6.65,4.27L54,197.27V149.8Z"/><path class="cls-1" d="M318.89,22.11H42.63c-9.5,0-17.57,7.59-17.57,17.09V311.66H336V39.2C336.45,29.7,328.39,22.11,318.89,22.11ZM42.63,29.23H318.89c5.7,0,10.44,4.75,10.44,10V58.66H32.66V39.2A9.73,9.73,0,0,1,42.63,29.23Zm286.7,36.55V116.1H32.66V65.78ZM32.66,304.54V123.22H329.33V305H32.66Z"/><rect class="cls-1" x="296.58" y="40.62" width="7.12" height="7.12"/><rect class="cls-1" x="278.54" y="40.62" width="7.12" height="7.12"/><rect class="cls-1" x="260.51" y="40.62" width="7.12" height="7.12"/><rect class="cls-1" x="55.44" y="40.62" width="182.75" height="7.12"/><path class="cls-1" d="M91,103.28V78.12H46.9v25.16Zm-37-18h29.9V96.16H54Z"/><path class="cls-1" d="M144.68,78.12H100.54v25.16h44.14Zm-7.12,18h-29.9V85.24h29.9Z"/><path class="cls-1" d="M198.32,78.12H154.18v25.16h44.14Zm-7.12,18H161.3V85.24h29.9Z"/><path class="cls-1" d="M314.62,78.12H270.47v25.16h44.15Zm-7.12,18H277.59V85.24H307.5Z"/></svg>